<svg width="18" height="18" viewBox="0 0 18 18" fill="none" xmlns="http://www.w3.org/2000/svg">
<path d="M1.7998 2.6998C1.7998 2.20199 2.20199 1.7998 2.6998 1.7998H15.2998C15.7976 1.7998 16.1998 2.20199 16.1998 2.6998C16.1998 3.19762 15.7976 3.5998 15.2998 3.5998V14.3998C15.7976 14.3998 16.1998 14.802 16.1998 15.2998C16.1998 15.7976 15.7976 16.1998 15.2998 16.1998H10.3498V14.8498C10.3498 14.1045 9.74512 13.4998 8.9998 13.4998C8.25449 13.4998 7.6498 14.1045 7.6498 14.8498V16.1998H2.6998C2.20199 16.1998 1.7998 15.7976 1.7998 15.2998C1.7998 14.802 2.20199 14.3998 2.6998 14.3998V3.5998C2.20199 3.5998 1.7998 3.19762 1.7998 2.6998ZM4.4998 4.9498V5.8498C4.4998 6.0973 4.7023 6.2998 4.9498 6.2998H5.8498C6.0973 6.2998 6.2998 6.0973 6.2998 5.8498V4.9498C6.2998 4.7023 6.0973 4.4998 5.8498 4.4998H4.9498C4.7023 4.4998 4.4998 4.7023 4.4998 4.9498ZM8.5498 4.4998C8.3023 4.4998 8.0998 4.7023 8.0998 4.9498V5.8498C8.0998 6.0973 8.3023 6.2998 8.5498 6.2998H9.4498C9.6973 6.2998 9.8998 6.0973 9.8998 5.8498V4.9498C9.8998 4.7023 9.6973 4.4998 9.4498 4.4998H8.5498ZM11.6998 4.9498V5.8498C11.6998 6.0973 11.9023 6.2998 12.1498 6.2998H13.0498C13.2973 6.2998 13.4998 6.0973 13.4998 5.8498V4.9498C13.4998 4.7023 13.2973 4.4998 13.0498 4.4998H12.1498C11.9023 4.4998 11.6998 4.7023 11.6998 4.9498ZM4.9498 7.1998C4.7023 7.1998 4.4998 7.4023 4.4998 7.6498V8.5498C4.4998 8.7973 4.7023 8.9998 4.9498 8.9998H5.8498C6.0973 8.9998 6.2998 8.7973 6.2998 8.5498V7.6498C6.2998 7.4023 6.0973 7.1998 5.8498 7.1998H4.9498ZM8.0998 7.6498V8.5498C8.0998 8.7973 8.3023 8.9998 8.5498 8.9998H9.4498C9.6973 8.9998 9.8998 8.7973 9.8998 8.5498V7.6498C9.8998 7.4023 9.6973 7.1998 9.4498 7.1998H8.5498C8.3023 7.1998 8.0998 7.4023 8.0998 7.6498ZM12.1498 7.1998C11.9023 7.1998 11.6998 7.4023 11.6998 7.6498V8.5498C11.6998 8.7973 11.9023 8.9998 12.1498 8.9998H13.0498C13.2973 8.9998 13.4998 8.7973 13.4998 8.5498V7.6498C13.4998 7.4023 13.2973 7.1998 13.0498 7.1998H12.1498ZM11.0248 12.5998C11.3989 12.5998 11.7082 12.2932 11.6154 11.9304C11.3173 10.7632 10.2598 9.8998 8.9998 9.8998C7.7398 9.8998 6.67949 10.7632 6.38418 11.9304C6.29137 12.2904 6.60355 12.5998 6.9748 12.5998H11.0248Z" fill="white"/>
</svg>
