<svg width="18" height="18" viewBox="0 0 18 18" fill="none" xmlns="http://www.w3.org/2000/svg">
<path d="M5.6023 5.10207L4.86824 7.2002H13.1314L12.3973 5.10207C12.2707 4.74207 11.9304 4.5002 11.5479 4.5002H6.45168C6.06918 4.5002 5.72887 4.74207 5.6023 5.10207ZM2.91355 7.3352L3.90355 4.50863C4.28324 3.42582 5.30418 2.7002 6.45168 2.7002H11.5479C12.6954 2.7002 13.7164 3.42582 14.0961 4.50863L15.0861 7.3352C15.7386 7.6052 16.1998 8.24926 16.1998 9.0002V13.0502V14.4002C16.1998 14.898 15.7976 15.3002 15.2998 15.3002H14.3998C13.902 15.3002 13.4998 14.898 13.4998 14.4002V13.0502H4.4998V14.4002C4.4998 14.898 4.09762 15.3002 3.5998 15.3002H2.6998C2.20199 15.3002 1.7998 14.898 1.7998 14.4002V13.0502V9.0002C1.7998 8.24926 2.26105 7.6052 2.91355 7.3352ZM5.3998 9.9002C5.3998 9.6615 5.30498 9.43258 5.1362 9.2638C4.96742 9.09502 4.7385 9.0002 4.4998 9.0002C4.26111 9.0002 4.03219 9.09502 3.86341 9.2638C3.69463 9.43258 3.5998 9.6615 3.5998 9.9002C3.5998 10.1389 3.69463 10.3678 3.86341 10.5366C4.03219 10.7054 4.26111 10.8002 4.4998 10.8002C4.7385 10.8002 4.96742 10.7054 5.1362 10.5366C5.30498 10.3678 5.3998 10.1389 5.3998 9.9002ZM13.4998 10.8002C13.7385 10.8002 13.9674 10.7054 14.1362 10.5366C14.305 10.3678 14.3998 10.1389 14.3998 9.9002C14.3998 9.6615 14.305 9.43258 14.1362 9.2638C13.9674 9.09502 13.7385 9.0002 13.4998 9.0002C13.2611 9.0002 13.0322 9.09502 12.8634 9.2638C12.6946 9.43258 12.5998 9.6615 12.5998 9.9002C12.5998 10.1389 12.6946 10.3678 12.8634 10.5366C13.0322 10.7054 13.2611 10.8002 13.4998 10.8002Z" fill="white"/>
</svg>
