<svg width="18" height="18" viewBox="0 0 18 18" fill="none" xmlns="http://www.w3.org/2000/svg">
<path d="M7.1998 4.43512C7.1998 3.47324 8.01543 1.7998 8.9998 1.7998C10.0123 1.7998 10.7998 3.47324 10.7998 4.43512V6.2998L15.8004 9.63262C16.0507 9.79855 16.1998 10.0798 16.1998 10.3807V11.9754C16.1998 12.282 15.8989 12.4986 15.6064 12.4029L10.7998 10.7998V13.0498L12.4198 14.2648C12.5323 14.3492 12.5998 14.4842 12.5998 14.6248V15.8061C12.5998 16.0254 12.4226 16.1998 12.2061 16.1998C12.1695 16.1998 12.1329 16.1942 12.0964 16.1857L8.9998 15.2998L5.90324 16.1857C5.86668 16.197 5.83012 16.1998 5.79355 16.1998C5.57418 16.1998 5.3998 16.0226 5.3998 15.8061V14.6248C5.3998 14.4842 5.4673 14.3492 5.5798 14.2648L7.1998 13.0498V10.7998L2.39324 12.4029C2.10074 12.4986 1.7998 12.282 1.7998 11.9754V10.3807C1.7998 10.0798 1.94887 9.79855 2.19918 9.63262L7.1998 6.2998V4.43512Z" fill="white"/>
</svg>
