<svg width="18" height="18" viewBox="0 0 18 18" fill="none" xmlns="http://www.w3.org/2000/svg">
<path d="M6.3 8.9998C7.25478 8.9998 8.17045 8.62052 8.84558 7.94539C9.52072 7.27026 9.9 6.35458 9.9 5.3998C9.9 4.44503 9.52072 3.52935 8.84558 2.85422C8.17045 2.17909 7.25478 1.7998 6.3 1.7998C5.34522 1.7998 4.42955 2.17909 3.75442 2.85422C3.07928 3.52935 2.7 4.44503 2.7 5.3998C2.7 6.35458 3.07928 7.27026 3.75442 7.94539C4.42955 8.62052 5.34522 8.9998 6.3 8.9998ZM5.01469 10.3498C2.24438 10.3498 0 12.5942 0 15.3645C0 15.8257 0.374063 16.1998 0.835312 16.1998H11.7647C11.8153 16.1998 11.8631 16.1942 11.9137 16.1857C9.76781 14.6361 9.10687 12.2201 9.01406 10.5551C8.56125 10.4201 8.08312 10.3498 7.58812 10.3498H5.01469ZM13.6997 8.14762L10.3247 9.49762C10.0687 9.60168 9.9 9.84918 9.9 10.1248C9.9 11.9051 10.6284 14.8723 13.6912 16.1492C13.8572 16.2195 14.0456 16.2195 14.2116 16.1492C17.2716 14.8723 18 11.9051 18 10.1248C18 9.84918 17.8313 9.60168 17.5753 9.49762L14.2003 8.14762C14.04 8.08293 13.86 8.08293 13.6997 8.14762ZM16.6331 10.5748C16.5234 12.0007 15.8681 13.857 13.95 14.7851V9.50043L16.6331 10.5748Z" fill="white"/>
</svg>
