<svg width="18" height="18" viewBox="0 0 18 18" fill="none" xmlns="http://www.w3.org/2000/svg">
<g clip-path="url(#clip0_506_12416)">
<mask id="mask0_506_12416" style="mask-type:alpha" maskUnits="userSpaceOnUse" x="0" y="0" width="18" height="18">
<rect width="18" height="18" fill="#D9D9D9"/>
</mask>
<g mask="url(#mask0_506_12416)">
<path d="M10.9113 17.6178C10.5876 17.6178 10.3124 17.5041 10.0858 17.2766C9.85923 17.0491 9.74593 16.7729 9.74593 16.448V11.0086C9.74593 10.6848 9.85924 10.4091 10.0859 10.1814C10.3125 9.95365 10.5877 9.83979 10.9115 9.83979H16.3506C16.6744 9.83979 16.9501 9.95353 17.1779 10.181C17.4056 10.4085 17.5194 10.6847 17.5194 11.0096V16.449C17.5194 16.7727 17.4057 17.0485 17.1782 17.2762C16.9508 17.5039 16.6746 17.6178 16.3496 17.6178L10.9113 17.6178ZM10.9113 16.448H16.3496V15.8264C16.0255 15.425 15.6302 15.1046 15.1636 14.865C14.6969 14.6255 14.1859 14.5057 13.6304 14.5057C13.075 14.5057 12.564 14.6255 12.0973 14.865C11.6307 15.1046 11.2353 15.425 10.9113 15.8264V16.448ZM13.6312 13.7288C13.9552 13.7288 14.2302 13.6154 14.4565 13.3887C14.6827 13.1619 14.7958 12.8866 14.7958 12.5626C14.7958 12.2387 14.6824 11.9636 14.4557 11.7374C14.2289 11.5112 13.9536 11.3981 13.6297 11.3981C13.3057 11.3981 13.0306 11.5115 12.8044 11.7382C12.5782 11.965 12.4651 12.2403 12.4651 12.5642C12.4651 12.8882 12.5785 13.1632 12.8052 13.3895C13.032 13.6157 13.3073 13.7288 13.6312 13.7288ZM9.02447 6.37511C8.29947 6.37511 7.68072 6.63136 7.16822 7.14386C6.65572 7.65636 6.39947 8.27511 6.39947 9.00011C6.39947 9.60011 6.57121 10.1274 6.91468 10.5818C7.25816 11.0363 7.70489 11.3481 8.25489 11.5171V9.72199C8.17881 9.63095 8.11699 9.51769 8.06944 9.3822C8.02189 9.24671 7.99811 9.11935 7.99811 9.00011C7.99811 8.71501 8.09789 8.47268 8.29746 8.27312C8.49703 8.07354 8.73937 7.97376 9.02447 7.97376C9.19017 7.97376 9.33811 8.00738 9.4683 8.07463C9.5985 8.14189 9.70911 8.23028 9.80014 8.33979H11.5594C11.4118 7.76887 11.1069 7.29869 10.6447 6.92925C10.1825 6.55983 9.64239 6.37511 9.02447 6.37511ZM6.80788 16.6526L6.49892 14.2032C6.35908 14.1494 6.22731 14.0848 6.10361 14.0094C5.97993 13.934 5.85829 13.8538 5.73872 13.7687L3.46264 14.7287L1.26562 10.924L3.23274 9.43463C3.22323 9.35959 3.21848 9.28723 3.21848 9.21756V8.78344C3.21848 8.71376 3.22323 8.64115 3.23274 8.5656L1.26562 7.07619L3.46264 3.28054L5.7477 4.23598C5.86726 4.15093 5.99009 4.07138 6.11618 3.99733C6.24226 3.92328 6.36984 3.85949 6.49892 3.80595L6.80788 1.34766H11.1929L11.5019 3.80595C11.6417 3.85901 11.7735 3.92269 11.8972 3.99698C12.0209 4.07126 12.1425 4.15093 12.2621 4.23598L14.5382 3.28054L16.7352 7.07619L15.0383 8.33979H13.0101C13.0006 8.27729 12.9866 8.19971 12.9681 8.10705C12.9496 8.01439 12.9234 7.92335 12.8894 7.83394L14.4974 6.62417L13.811 5.42987L11.9637 6.21737C11.6887 5.92091 11.3819 5.67356 11.0432 5.47532C10.7044 5.27708 10.3383 5.12946 9.94485 5.03244L9.7011 3.05392H8.31399L8.06048 5.02796C7.664 5.12497 7.29566 5.2726 6.95544 5.47084C6.61522 5.66906 6.30611 5.91166 6.02813 6.19862L4.18534 5.42987L3.5034 6.62417L5.09798 7.81071C5.03548 8.00418 4.99023 8.19658 4.96223 8.38791C4.93424 8.57922 4.92024 8.78329 4.92024 9.00011C4.92024 9.2031 4.93424 9.40133 4.96223 9.59481C4.99023 9.78829 5.03548 9.98178 5.09798 10.1753L3.5034 11.3761L4.18534 12.5704L6.02715 11.7873C6.32481 12.0998 6.6604 12.3623 7.03391 12.5748C7.40741 12.7873 7.81142 12.9293 8.24593 13.0008V16.6526H6.80788Z" fill="white"/>
</g>
</g>
<defs>
<clipPath id="clip0_506_12416">
<rect width="18" height="18" fill="white"/>
</clipPath>
</defs>
</svg>
