<svg width="20" height="20" viewBox="0 0 20 20" fill="none" xmlns="http://www.w3.org/2000/svg">
<path d="M9.64033 6.22813C9.86221 6.03125 9.94971 5.72188 9.83408 5.44688C9.76221 5.28125 9.68408 5.11875 9.59658 4.9625L9.49971 4.79375C9.40596 4.6375 9.30283 4.48438 9.19346 4.3375C9.01533 4.1 8.70283 4.02187 8.42158 4.11562L7.54033 4.40625C7.20596 4.13125 6.82158 3.90625 6.40908 3.75312L6.21846 2.84688C6.15908 2.55625 5.93408 2.325 5.64033 2.29063C5.43408 2.2625 5.22471 2.25 5.01221 2.25H4.99033C4.77783 2.25 4.56846 2.2625 4.36221 2.2875C4.06846 2.32187 3.84346 2.55625 3.78408 2.84375L3.59346 3.75312C3.17783 3.90937 2.79658 4.13125 2.46221 4.40625L1.57783 4.11875C1.29658 4.025 0.984083 4.10313 0.805958 4.34063C0.696583 4.4875 0.593458 4.64062 0.496583 4.79688L0.402833 4.9625C0.315333 5.11875 0.237208 5.28125 0.165333 5.45C0.0497078 5.72188 0.137208 6.03125 0.359083 6.23125L1.05283 6.85C1.01846 7.05937 0.999708 7.27813 0.999708 7.5C0.999708 7.72187 1.01846 7.94062 1.05283 8.15312L0.359083 8.77187C0.137208 8.96875 0.0497078 9.27812 0.165333 9.55312C0.237208 9.71875 0.315333 9.88125 0.402833 10.0406L0.496583 10.2031C0.590333 10.3625 0.693458 10.5125 0.805958 10.6594C0.984083 10.8969 1.29658 10.975 1.57783 10.8813L2.45908 10.5906C2.79346 10.8656 3.17783 11.0906 3.59033 11.2437L3.78096 12.1531C3.84033 12.4437 4.06533 12.675 4.35908 12.7094C4.56846 12.7344 4.78096 12.7469 4.99658 12.7469C5.21221 12.7469 5.42471 12.7344 5.63408 12.7094C5.92783 12.675 6.15283 12.4406 6.21221 12.1531L6.40283 11.2437C6.81846 11.0875 7.19971 10.8656 7.53408 10.5906L8.41533 10.8813C8.69658 10.975 9.00908 10.8969 9.18721 10.6594C9.29658 10.5125 9.39971 10.3625 9.49346 10.2031L9.59033 10.0344C9.67783 9.87813 9.75596 9.71563 9.82783 9.55C9.94346 9.27813 9.85596 8.96875 9.63408 8.76875L8.94033 8.15C8.97471 7.9375 8.99346 7.71875 8.99346 7.49687C8.99346 7.275 8.97471 7.05625 8.94033 6.84375L9.63408 6.225L9.64033 6.22813ZM3.49971 7.5C3.49971 7.10218 3.65774 6.72064 3.93905 6.43934C4.22035 6.15804 4.60188 6 4.99971 6C5.39753 6 5.77906 6.15804 6.06037 6.43934C6.34167 6.72064 6.49971 7.10218 6.49971 7.5C6.49971 7.89782 6.34167 8.27936 6.06037 8.56066C5.77906 8.84196 5.39753 9 4.99971 9C4.60188 9 4.22035 8.84196 3.93905 8.56066C3.65774 8.27936 3.49971 7.89782 3.49971 7.5ZM15.7716 17.6406C15.9685 17.8625 16.2778 17.95 16.5528 17.8344C16.7185 17.7625 16.881 17.6844 17.0372 17.5969L17.206 17.5C17.3622 17.4062 17.5153 17.3031 17.6622 17.1938C17.8997 17.0156 17.9778 16.7031 17.8841 16.4219L17.5935 15.5406C17.8685 15.2062 18.0935 14.8219 18.2466 14.4094L19.156 14.2188C19.4466 14.1594 19.6778 13.9344 19.7122 13.6406C19.7372 13.4313 19.7497 13.2188 19.7497 13.0031C19.7497 12.7875 19.7372 12.575 19.7122 12.3656C19.6778 12.0719 19.4435 11.8469 19.156 11.7875L18.2466 11.5938C18.0903 11.1781 17.8685 10.7969 17.5935 10.4625L17.8841 9.58125C17.9778 9.3 17.8997 8.9875 17.6622 8.80937C17.5153 8.7 17.3622 8.59687 17.206 8.5L17.0403 8.40625C16.8841 8.31875 16.7216 8.24062 16.5528 8.16875C16.281 8.05312 15.9716 8.14063 15.7716 8.3625L15.1528 9.05625C14.9403 9.02188 14.7216 9.00313 14.4997 9.00313C14.2778 9.00313 14.0591 9.02188 13.8466 9.05625L13.2278 8.3625C13.031 8.14063 12.7216 8.05312 12.4466 8.16875C12.281 8.24062 12.1185 8.31875 11.9591 8.40625L11.7966 8.5C11.6372 8.59375 11.4872 8.69687 11.3403 8.80937C11.1028 8.9875 11.0247 9.3 11.1185 9.58125L11.4091 10.4625C11.1341 10.7969 10.9091 11.1813 10.756 11.5938L9.84658 11.7812C9.55596 11.8406 9.32471 12.0656 9.29033 12.3594C9.26533 12.5687 9.25283 12.7812 9.25283 12.9969C9.25283 13.2125 9.26533 13.425 9.29033 13.6344C9.32471 13.9281 9.55908 14.1531 9.84658 14.2125L10.756 14.4031C10.9122 14.8187 11.1341 15.2 11.4091 15.5344L11.1185 16.4156C11.0247 16.6969 11.1028 17.0094 11.3403 17.1875C11.4872 17.2969 11.6372 17.4 11.7966 17.4937L11.9653 17.5906C12.1216 17.6781 12.2841 17.7563 12.4497 17.8281C12.7216 17.9438 13.031 17.8562 13.231 17.6344L13.8497 16.9406C14.0622 16.975 14.281 16.9937 14.5028 16.9937C14.7247 16.9937 14.9435 16.975 15.156 16.9406L15.7747 17.6344L15.7716 17.6406ZM14.4997 11.5C14.6967 11.5 14.8917 11.5388 15.0737 11.6142C15.2557 11.6896 15.4211 11.8001 15.5604 11.9393C15.6997 12.0786 15.8101 12.244 15.8855 12.426C15.9609 12.608 15.9997 12.803 15.9997 13C15.9997 13.197 15.9609 13.392 15.8855 13.574C15.8101 13.756 15.6997 13.9214 15.5604 14.0607C15.4211 14.1999 15.2557 14.3104 15.0737 14.3858C14.8917 14.4612 14.6967 14.5 14.4997 14.5C14.3027 14.5 14.1077 14.4612 13.9257 14.3858C13.7437 14.3104 13.5783 14.1999 13.439 14.0607C13.2998 13.9214 13.1893 13.756 13.1139 13.574C13.0385 13.392 12.9997 13.197 12.9997 13C12.9997 12.803 13.0385 12.608 13.1139 12.426C13.1893 12.244 13.2998 12.0786 13.439 11.9393C13.5783 11.8001 13.7437 11.6896 13.9257 11.6142C14.1077 11.5388 14.3027 11.5 14.4997 11.5Z" fill="white"/>
</svg>
