<svg width="18" height="18" viewBox="0 0 18 18" fill="none" xmlns="http://www.w3.org/2000/svg">
<path d="M5.4002 1.7998C3.90957 1.7998 2.7002 3.00918 2.7002 4.4998V11.6998C2.7002 13.0498 3.6902 14.1664 4.98113 14.3689L3.68738 15.6626C3.49051 15.8595 3.63113 16.1998 3.90957 16.1998H5.02613C5.2652 16.1998 5.49301 16.1042 5.66176 15.9354L7.2002 14.3998H10.8002L12.3358 15.9354C12.5046 16.1042 12.7324 16.1998 12.9714 16.1998H14.0908C14.3721 16.1998 14.5127 15.8595 14.313 15.6626L13.0193 14.3689C14.313 14.1692 15.3002 13.0498 15.3002 11.6998V4.4998C15.3002 3.00918 14.0908 1.7998 12.6002 1.7998H5.4002ZM4.5002 5.3998C4.5002 4.90199 4.90238 4.4998 5.4002 4.4998H7.6502C8.14801 4.4998 8.5502 4.90199 8.5502 5.3998V8.0998C8.5502 8.59762 8.14801 8.9998 7.6502 8.9998H5.4002C4.90238 8.9998 4.5002 8.59762 4.5002 8.0998V5.3998ZM10.3502 4.4998H12.6002C13.098 4.4998 13.5002 4.90199 13.5002 5.3998V8.0998C13.5002 8.59762 13.098 8.9998 12.6002 8.9998H10.3502C9.85238 8.9998 9.4502 8.59762 9.4502 8.0998V5.3998C9.4502 4.90199 9.85238 4.4998 10.3502 4.4998ZM4.5002 11.6998C4.5002 11.4611 4.59502 11.2322 4.7638 11.0634C4.93258 10.8946 5.1615 10.7998 5.4002 10.7998C5.63889 10.7998 5.86781 10.8946 6.03659 11.0634C6.20537 11.2322 6.3002 11.4611 6.3002 11.6998C6.3002 11.9385 6.20537 12.1674 6.03659 12.3362C5.86781 12.505 5.63889 12.5998 5.4002 12.5998C5.1615 12.5998 4.93258 12.505 4.7638 12.3362C4.59502 12.1674 4.5002 11.9385 4.5002 11.6998ZM12.6002 10.7998C12.8389 10.7998 13.0678 10.8946 13.2366 11.0634C13.4054 11.2322 13.5002 11.4611 13.5002 11.6998C13.5002 11.9385 13.4054 12.1674 13.2366 12.3362C13.0678 12.505 12.8389 12.5998 12.6002 12.5998C12.3615 12.5998 12.1326 12.505 11.9638 12.3362C11.795 12.1674 11.7002 11.9385 11.7002 11.6998C11.7002 11.4611 11.795 11.2322 11.9638 11.0634C12.1326 10.8946 12.3615 10.7998 12.6002 10.7998Z" fill="white"/>
</svg>
