<svg width="18" height="18" viewBox="0 0 18 18" fill="none" xmlns="http://www.w3.org/2000/svg">
<path d="M10.6401 9.44443L8.94977 8.8285L6.91914 14.4001H1.80039C1.30258 14.4001 0.900391 14.8022 0.900391 15.3001C0.900391 15.7979 1.30258 16.2001 1.80039 16.2001H16.2004C16.6982 16.2001 17.1004 15.7979 17.1004 15.3001C17.1004 14.8022 16.6982 14.4001 16.2004 14.4001H8.83445L10.6373 9.44443H10.6401ZM14.046 9.43881L13.9532 9.69475L15.8573 10.3866C16.3663 10.5722 16.926 10.2685 16.971 9.7285C17.1538 7.52068 16.2988 5.35506 14.6985 3.86443C14.7548 4.08943 14.7885 4.32287 14.7941 4.56193L14.7998 4.73068C14.8504 6.33381 14.5945 7.93131 14.046 9.43881ZM13.8941 4.58725C13.8632 3.61975 13.2613 2.76475 12.3641 2.41037C12.3388 2.39912 12.3107 2.39068 12.2854 2.37943C11.3573 2.05037 10.3223 2.31193 9.66695 3.04881L9.55445 3.17537C8.56164 4.2835 7.79102 5.57443 7.27914 6.97506L7.18633 7.231L13.1066 9.38537L13.1995 9.12943C13.7085 7.72881 13.9476 6.24662 13.8998 4.756L13.8941 4.58725ZM3.91539 4.97537C3.6032 5.41693 3.83664 6.01037 4.3457 6.196L6.34258 6.92162L6.43539 6.66568C6.98383 5.15818 7.81633 3.76881 8.88508 2.5735L8.99758 2.44693C9.17195 2.25287 9.36602 2.08131 9.57414 1.93506C7.33539 2.00537 5.2232 3.12193 3.91539 4.97256V4.97537Z" fill="white"/>
</svg>
