<svg width="20" height="20" viewBox="0 0 20 20" fill="none" xmlns="http://www.w3.org/2000/svg">
<path d="M18 5C18 6.56875 16.1531 8.90938 15.3562 9.84375C15.2375 9.98125 15.0625 10.0344 14.9031 10H12C11.4469 10 11 10.4469 11 11C11 11.5531 11.4469 12 12 12H15C16.6562 12 18 13.3438 18 15C18 16.6562 16.6562 18 15 18H6.3625C6.63438 17.6906 6.96563 17.2938 7.3 16.85C7.49688 16.5875 7.7 16.3 7.89375 16H15C15.5531 16 16 15.5531 16 15C16 14.4469 15.5531 14 15 14H12C10.3438 14 9 12.6562 9 11C9 9.34375 10.3438 8 12 8H13.2437C12.5875 7.01562 12 5.88437 12 5C12 3.34375 13.3438 2 15 2C16.6562 2 18 3.34375 18 5ZM5.65937 17.2844C5.54062 17.4188 5.43438 17.5375 5.34375 17.6375L5.2875 17.7L5.28125 17.6938C5.09375 17.8375 4.825 17.8187 4.65625 17.6375C3.86875 16.7812 2 14.5781 2 13C2 11.3438 3.34375 10 5 10C6.65625 10 8 11.3438 8 13C8 13.9375 7.34062 15.0937 6.64062 16.0594C6.30625 16.5187 5.9625 16.9344 5.67812 17.2625L5.65937 17.2844ZM6 13C6 12.7348 5.89464 12.4804 5.70711 12.2929C5.51957 12.1054 5.26522 12 5 12C4.73478 12 4.48043 12.1054 4.29289 12.2929C4.10536 12.4804 4 12.7348 4 13C4 13.2652 4.10536 13.5196 4.29289 13.7071C4.48043 13.8946 4.73478 14 5 14C5.26522 14 5.51957 13.8946 5.70711 13.7071C5.89464 13.5196 6 13.2652 6 13ZM15 6C15.2652 6 15.5196 5.89464 15.7071 5.70711C15.8946 5.51957 16 5.26522 16 5C16 4.73478 15.8946 4.48043 15.7071 4.29289C15.5196 4.10536 15.2652 4 15 4C14.7348 4 14.4804 4.10536 14.2929 4.29289C14.1054 4.48043 14 4.73478 14 5C14 5.26522 14.1054 5.51957 14.2929 5.70711C14.4804 5.89464 14.7348 6 15 6Z" fill="white"/>
</svg>
