<svg width="18" height="18" viewBox="0 0 18 18" fill="none" xmlns="http://www.w3.org/2000/svg">
<path d="M2.7002 3.5998C2.7002 2.60699 3.50738 1.7998 4.5002 1.7998H13.5002C14.493 1.7998 15.3002 2.60699 15.3002 3.5998V14.3998C15.3002 15.3926 14.493 16.1998 13.5002 16.1998H4.5002C3.50738 16.1998 2.7002 15.3926 2.7002 14.3998V3.5998ZM7.84707 9.64105C7.06238 9.2698 6.48582 8.53293 6.33676 7.6498H7.43645C7.48145 8.5048 7.65301 9.16293 7.84707 9.64105ZM9.00863 9.8998H9.0002H8.99176C8.92426 9.80137 8.83145 9.64949 8.73582 9.43574C8.56707 9.05324 8.38707 8.47105 8.33645 7.6498H9.66113C9.61051 8.47105 9.43332 9.05324 9.26176 9.43574C9.16613 9.64949 9.07332 9.80137 9.00582 9.8998H9.00863ZM10.1533 9.64105C10.3446 9.16012 10.5161 8.5048 10.5639 7.6498H11.6636C11.5146 8.53293 10.938 9.2698 10.1533 9.64105ZM10.5639 6.7498C10.5189 5.8948 10.3474 5.23668 10.1533 4.75855C10.938 5.1298 11.5146 5.86668 11.6636 6.7498H10.5639ZM8.99176 4.4998H9.0002H9.00863C9.07613 4.59824 9.16895 4.75012 9.26457 4.96387C9.43332 5.34637 9.61332 5.92855 9.66395 6.7498H8.33926C8.38988 5.92855 8.56707 5.34637 8.73863 4.96387C8.83426 4.75012 8.92707 4.59824 8.99457 4.4998H8.99176ZM7.84707 4.75855C7.65582 5.23949 7.48426 5.8948 7.43645 6.7498H6.33676C6.48582 5.86668 7.06238 5.1298 7.84707 4.75855ZM12.6002 7.1998C12.6002 6.24503 12.2209 5.32935 11.5458 4.65422C10.8706 3.97909 9.95497 3.5998 9.0002 3.5998C8.04542 3.5998 7.12974 3.97909 6.45461 4.65422C5.77948 5.32935 5.4002 6.24503 5.4002 7.1998C5.4002 8.15458 5.77948 9.07026 6.45461 9.74539C7.12974 10.4205 8.04542 10.7998 9.0002 10.7998C9.95497 10.7998 10.8706 10.4205 11.5458 9.74539C12.2209 9.07026 12.6002 8.15458 12.6002 7.1998ZM5.8502 12.5998C5.6027 12.5998 5.4002 12.8023 5.4002 13.0498C5.4002 13.2973 5.6027 13.4998 5.8502 13.4998H12.1502C12.3977 13.4998 12.6002 13.2973 12.6002 13.0498C12.6002 12.8023 12.3977 12.5998 12.1502 12.5998H5.8502Z" fill="white"/>
</svg>
