<svg width="35" height="35" viewBox="0 0 35 35" fill="none" xmlns="http://www.w3.org/2000/svg">
<g clip-path="url(#clip0_1532_13675)">
<path d="M31.5983 5.92567C31.7439 5.92589 31.8894 5.92428 32.035 5.92255C32.9201 5.91845 33.9756 5.97717 34.6522 6.61776C34.9895 7.00126 35.0412 7.27418 35.0359 7.78895C34.9584 8.67359 34.2854 9.43142 33.7013 10.0488C33.6406 10.1142 33.5799 10.1796 33.5173 10.2469C32.2613 11.5523 30.7366 12.1868 29.0913 12.8772C28.9338 12.9437 28.7763 13.0103 28.6188 13.0769C28.541 13.1096 28.4631 13.1424 28.3829 13.1761C28.2256 13.2429 28.0688 13.3109 27.9125 13.38C27.5193 13.5519 27.141 13.6946 26.7237 13.7965C25.9413 14.0065 25.9413 14.0065 25.3529 14.536C24.9581 15.2456 24.7983 16.0787 24.6136 16.8616C24.5344 17.1898 24.4467 17.5157 24.3595 17.8419C24.233 18.3173 24.109 18.7931 23.9879 19.2699C23.7647 20.1479 23.5221 21.0191 23.2682 21.8886C23.2496 21.9524 23.231 22.0162 23.2118 22.0819C23.1198 22.3969 23.0274 22.7117 22.9349 23.0265C22.7974 23.4949 22.6623 23.964 22.5272 24.4331C22.4651 24.6489 22.4026 24.8647 22.3398 25.0803C22.3099 25.1832 22.2799 25.2861 22.25 25.3889C22.2283 25.4634 22.2283 25.4634 22.2062 25.5393C22.1235 25.8244 22.0427 26.1099 21.9638 26.3961C21.9276 26.5269 21.8908 26.6576 21.854 26.7883C21.8102 26.9438 21.7674 27.0996 21.7257 27.2557C21.5769 27.7779 21.3916 28.1357 20.9213 28.425C20.8518 28.4547 20.7822 28.4843 20.7106 28.5149C20.6327 28.5488 20.5547 28.5828 20.4744 28.6177C20.3938 28.6513 20.3133 28.6849 20.2302 28.7195C20.1515 28.7536 20.0728 28.7877 19.9916 28.8228C18.1836 29.5996 18.1836 29.5996 17.5557 29.3902C17.0853 29.0662 16.8905 28.6991 16.7693 28.1515C16.754 28.088 16.7388 28.0246 16.723 27.9592C16.6717 27.7444 16.6224 27.5291 16.573 27.3138C16.5366 27.1597 16.5 27.0057 16.4633 26.8517C16.3907 26.546 16.3186 26.2402 16.2471 25.9342C16.0634 25.1482 15.8755 24.3631 15.6875 23.5781C15.6215 23.3024 15.5555 23.0267 15.4896 22.751C15.4732 22.6826 15.4568 22.6141 15.4399 22.5437C15.2633 21.8056 15.0875 21.0674 14.9118 20.3292C14.89 20.2377 14.89 20.2377 14.8678 20.1443C14.7882 19.8098 14.7086 19.4752 14.629 19.1406C14.3867 19.1406 14.3045 19.1481 14.0973 19.2392C14.0469 19.2611 13.9965 19.2829 13.9446 19.3055C13.8627 19.3419 13.8627 19.3419 13.7791 19.3791C13.7211 19.4044 13.663 19.4297 13.6033 19.4557C13.4772 19.5108 13.3512 19.566 13.2253 19.6215C12.8857 19.771 12.5454 19.9188 12.2052 20.0669C12.1347 20.0977 12.0642 20.1284 11.9915 20.1601C11.2411 20.4869 10.4873 20.8056 9.7328 21.123C9.63598 21.1638 9.63598 21.1638 9.53721 21.2054C9.02778 21.4198 9.02778 21.4198 8.78447 21.5221C8.42259 21.6744 8.06116 21.8277 7.70017 21.9821C7.61749 22.0174 7.5348 22.0526 7.4496 22.089C7.30351 22.1514 7.1575 22.2141 7.01161 22.277C6.29339 22.5834 5.65246 22.7691 4.87928 22.5244C4.07112 22.1885 3.71462 21.5575 3.31192 20.8244C3.20435 20.6287 3.0952 20.434 2.98578 20.2394C2.8218 19.9476 2.65833 19.6554 2.49525 19.363C2.18453 18.8068 1.868 18.254 1.55107 17.7013C1.34437 17.3407 1.13803 16.9799 0.931741 16.6191C0.860909 16.4952 0.790027 16.3714 0.71914 16.2475C0.63227 16.0956 0.545645 15.9436 0.459305 15.7914C0.385788 15.6627 0.311213 15.5346 0.235101 15.4074C-0.0184 14.977 -0.0730246 14.6499 0.000131949 14.1504C0.106593 13.7873 0.337155 13.6113 0.64731 13.4238C0.999348 13.2332 1.36887 13.0841 1.73902 12.9327C1.81943 12.8984 1.89984 12.8641 1.98269 12.8287C2.90192 12.4511 2.90192 12.4511 3.41935 12.6243C3.79351 12.7941 4.10818 13.0527 4.4264 13.3087C4.53557 13.3951 4.64479 13.4814 4.75405 13.5677C4.80651 13.6093 4.85897 13.6509 4.91303 13.6938C5.09756 13.8392 5.28471 13.9802 5.47315 14.1205C5.86896 14.4151 6.26056 14.7151 6.6517 15.0158C6.69924 15.0523 6.74677 15.0888 6.79575 15.1264C6.85933 15.1753 6.85933 15.1753 6.92421 15.2251C7.14677 15.4036 7.14677 15.4036 7.41926 15.442C7.75267 15.356 8.05875 15.2224 8.37416 15.0855C8.44545 15.055 8.51675 15.0245 8.59021 14.993C8.82599 14.892 9.06149 14.7903 9.29701 14.6887C9.46274 14.6176 9.6285 14.5465 9.79428 14.4754C10.0959 14.3462 10.3974 14.2168 10.6988 14.0872C11.4694 13.756 12.2411 13.4278 13.0129 13.0997C14.1676 12.6086 15.3216 12.1159 16.4747 11.6211C17.9446 10.9904 19.4162 10.3638 20.8879 9.73746C21.5134 9.47122 22.1388 9.20466 22.7642 8.93802C23.3749 8.67765 23.9858 8.41773 24.5967 8.15792C25.076 7.954 25.555 7.74925 26.0337 7.54402C26.3583 7.40498 26.683 7.26641 27.0079 7.12792C27.1613 7.06239 27.3146 6.99667 27.4678 6.93073C29.0355 6.25626 29.0355 6.25626 29.8048 6.08397C29.871 6.06904 29.9372 6.05412 30.0054 6.03874C30.5341 5.93565 31.0616 5.92401 31.5983 5.92567Z" fill="#929292"/>
<path d="M13.0626 5.80028C13.1421 5.82788 13.2215 5.85548 13.3034 5.88392C13.5176 5.95853 13.7314 6.03397 13.9452 6.10986C14.167 6.18842 14.3891 6.26597 14.6112 6.34365C15.0138 6.48462 15.4159 6.62659 15.8179 6.76899C16.1739 6.89501 16.5302 7.0199 16.8867 7.14452C17.1557 7.23867 17.4246 7.33332 17.6934 7.42819C17.8176 7.472 17.9419 7.51569 18.0662 7.55926C18.2366 7.61908 18.4067 7.67956 18.5768 7.74025C18.6266 7.75763 18.6765 7.77502 18.7279 7.79293C19.0643 7.91417 19.0643 7.91417 19.1405 8.06656C19.0625 8.09974 18.9845 8.13292 18.9041 8.16711C18.5955 8.29843 18.2868 8.42976 17.9781 8.56109C17.8357 8.62168 17.6933 8.68226 17.5509 8.74285C16.6799 9.11348 15.8089 9.48428 14.938 9.85538C14.8155 9.90757 14.8155 9.90757 14.6905 9.96081C14.2938 10.1299 13.897 10.299 13.5003 10.4681C13.1452 10.6194 12.79 10.7705 12.4348 10.9215C12.2381 11.0052 12.0415 11.0892 11.8448 11.1733C11.7257 11.224 11.6066 11.2747 11.4874 11.3254C11.4332 11.3486 11.3791 11.3719 11.3232 11.3959C10.9529 11.5529 10.9529 11.5529 10.8006 11.5529C10.6738 11.3873 10.5548 11.2209 10.4375 11.0487C10.3633 10.9417 10.2891 10.8347 10.2148 10.7278C10.1762 10.6721 10.1377 10.6165 10.098 10.5592C9.90978 10.2898 9.71633 10.0243 9.52316 9.75845C9.44907 9.65567 9.37502 9.55287 9.30099 9.45003C9.16987 9.26797 9.03745 9.08701 8.90366 8.9069C8.28354 8.06163 8.28354 8.06163 8.36185 7.49645C8.46938 7.08484 8.67588 6.86858 9.02329 6.63101C9.29314 6.4884 9.57082 6.36882 9.85214 6.25076C9.92841 6.21817 10.0047 6.18559 10.0833 6.15201C10.2329 6.08837 10.3828 6.02516 10.5329 5.96244C10.6958 5.8943 10.8581 5.82485 11.0201 5.75462C11.0943 5.72378 11.1685 5.69294 11.245 5.66116C11.3049 5.63622 11.3648 5.61129 11.4265 5.58559C12.0213 5.43771 12.5038 5.60021 13.0626 5.80028Z" fill="#929292"/>
</g>
<defs>
<clipPath id="clip0_1532_13675">
<rect width="35" height="35" fill="white"/>
</clipPath>
</defs>
</svg>
