<svg width="25" height="24" viewBox="0 0 25 24" fill="none" xmlns="http://www.w3.org/2000/svg">
<mask id="mask0_222_40599" style="mask-type:alpha" maskUnits="userSpaceOnUse" x="0" y="0" width="25" height="24">
<rect x="0.5" width="24" height="24" fill="#D9D9D9"/>
</mask>
<g mask="url(#mask0_222_40599)">
<path d="M18.6577 9.9459L17.6038 8.8613L19.5423 6.95363L20.5961 8.00745L18.6577 9.9459ZM2.75 19.7497V18.2498H22.25V19.7497H2.75ZM11.75 7.11515V4.42285H13.25V7.11515H11.75ZM6.3423 9.91513L4.43463 7.97668L5.48845 6.92285L7.42688 8.8613L6.3423 9.91513ZM7.92498 13.9998H17.075C16.6916 13.0998 16.09 12.3748 15.2702 11.8248C14.4503 11.2748 13.5269 10.9998 12.5 10.9998C11.4731 10.9998 10.5497 11.2748 9.72977 11.8248C8.90991 12.3748 8.30831 13.0998 7.92498 13.9998ZM6.0577 15.4997C6.1731 13.7997 6.84746 12.3748 8.08078 11.2248C9.31411 10.0748 10.7872 9.49978 12.5 9.49978C14.2128 9.49978 15.6858 10.0748 16.9192 11.2248C18.1525 12.3748 18.8269 13.7997 18.9423 15.4997H6.0577Z" fill="#262626"/>
</g>
</svg>
