<svg width="25" height="24" viewBox="0 0 25 24" fill="none" xmlns="http://www.w3.org/2000/svg">
<mask id="mask0_222_40629" style="mask-type:alpha" maskUnits="userSpaceOnUse" x="0" y="0" width="25" height="24">
<rect x="0.5" width="24" height="24" fill="#D9D9D9"/>
</mask>
<g mask="url(#mask0_222_40629)">
<path d="M13.6 22.4998H11L11.3561 22.266C11.5935 22.1101 11.8517 21.9355 12.1307 21.7422C12.4097 21.5489 12.6679 21.3742 12.9053 21.2183L13.2615 20.9845H13.9538C15.3487 20.923 16.6378 20.5307 17.8211 19.8076C19.0045 19.0845 19.9391 18.1069 20.625 16.8749C19.1916 16.7412 17.8333 16.3777 16.55 15.7844C15.2666 15.1911 14.1166 14.3847 13.1 13.3652C12.0897 12.3486 11.283 11.1986 10.6798 9.91524C10.0766 8.63191 9.71664 7.27678 9.59998 5.84987C8.31664 6.56653 7.31247 7.55403 6.58747 8.81237C5.86247 10.0707 5.49997 11.4332 5.49997 12.8999C5.49997 13.0165 5.50478 13.1483 5.5144 13.2951C5.52402 13.4419 5.53844 13.5704 5.55768 13.6807L5.3346 13.7749C5.18588 13.8377 5.01954 13.9047 4.83557 13.9758C4.65161 14.047 4.48527 14.1156 4.33655 14.1816L4.11347 14.2806C4.07372 14.0589 4.04488 13.8303 4.02693 13.5951C4.00898 13.3598 4 13.1281 4 12.8999C4 10.7101 4.66762 8.75983 6.00287 7.04894C7.33811 5.33806 9.06469 4.21595 11.1826 3.68262C10.998 5.28773 11.1634 6.84413 11.6788 8.35182C12.1942 9.85952 13.0243 11.1858 14.1692 12.3307C15.314 13.4755 16.6403 14.3057 18.148 14.821C19.6557 15.3364 21.2121 15.5018 22.8172 15.3172C22.2941 17.4352 21.1746 19.1617 19.4586 20.497C17.7426 21.8322 15.7897 22.4998 13.6 22.4998ZM6.49997 20.9999H11C11.4166 20.9999 11.7708 20.854 12.0625 20.5624C12.3541 20.2707 12.5 19.9165 12.5 19.4999C12.5 19.0832 12.3583 18.729 12.075 18.4374C11.7916 18.1457 11.45 17.9999 11.05 17.9999H9.74997L9.24997 16.7999C9.01664 16.2499 8.64997 15.8124 8.14997 15.4874C7.64997 15.1624 7.09997 14.9999 6.49997 14.9999C5.66664 14.9999 4.95831 15.2874 4.37497 15.8624C3.79164 16.4374 3.49998 17.1499 3.49998 17.9999C3.49998 18.8332 3.79164 19.5415 4.37497 20.1249C4.95831 20.7082 5.66664 20.9999 6.49997 20.9999ZM6.49997 22.4998C5.25127 22.487 4.1891 22.0444 3.31345 21.172C2.43782 20.2995 2 19.2412 2 17.997C2 16.7528 2.43782 15.6923 3.31345 14.8153C4.1891 13.9384 5.25161 13.4999 6.50098 13.4999C7.40414 13.4999 8.22695 13.7447 8.9694 14.2343C9.71183 14.7239 10.263 15.3829 10.623 16.2114L10.748 16.4999H11.0557C11.8711 16.5204 12.5657 16.8211 13.1394 17.4021C13.7131 17.983 14 18.6823 14 19.5C14 20.3319 13.708 21.0399 13.124 21.6239C12.54 22.2078 11.832 22.4998 11 22.4998H6.49997Z" fill="#262626"/>
</g>
</svg>
