<svg width="25" height="24" viewBox="0 0 25 24" fill="none" xmlns="http://www.w3.org/2000/svg">
<mask id="mask0_222_40609" style="mask-type:alpha" maskUnits="userSpaceOnUse" x="0" y="0" width="25" height="24">
<rect x="0.5" width="24" height="24" fill="#D9D9D9"/>
</mask>
<g mask="url(#mask0_222_40609)">
<path d="M11.7498 5.21181V1.51953H13.2497V5.21181H11.7498ZM17.8228 7.73103L16.794 6.70221L19.3728 4.03876L20.4363 5.11758L17.8228 7.73103ZM19.2882 12.7502V11.2503H22.9805V12.7502H19.2882ZM11.7498 22.481V18.7983H13.2497V22.481H11.7498ZM7.19594 7.69063L4.53827 5.12721L5.62672 4.07338L8.24014 6.67721L7.19594 7.69063ZM19.3574 19.9618L16.794 17.2983L17.8074 16.2945L20.4266 18.8426L19.3574 19.9618ZM2.01904 12.7502V11.2503H5.71132V12.7502H2.01904ZM5.61709 19.9618L4.57289 18.8733L7.15172 16.2945L7.69402 16.806L8.24592 17.3329L5.61709 19.9618ZM12.502 17.5002C10.9749 17.5002 9.67607 16.9657 8.60557 15.8967C7.53505 14.8277 6.99979 13.5297 6.99979 12.0025C6.99979 10.4754 7.53429 9.17656 8.60329 8.10606C9.67229 7.03554 10.9704 6.50028 12.4975 6.50028C14.0246 6.50028 15.3235 7.03478 16.394 8.10378C17.4645 9.17278 17.9997 10.4708 17.9997 11.998C17.9997 13.5251 17.4652 14.824 16.3962 15.8945C15.3272 16.965 14.0292 17.5002 12.502 17.5002ZM12.4998 16.0003C13.5998 16.0003 14.5414 15.6086 15.3248 14.8253C16.1081 14.0419 16.4998 13.1003 16.4998 12.0003C16.4998 10.9003 16.1081 9.95859 15.3248 9.17526C14.5414 8.39192 13.5998 8.00026 12.4998 8.00026C11.3998 8.00026 10.4581 8.39192 9.67477 9.17526C8.89143 9.95859 8.49977 10.9003 8.49977 12.0003C8.49977 13.1003 8.89143 14.0419 9.67477 14.8253C10.4581 15.6086 11.3998 16.0003 12.4998 16.0003Z" fill="#262626"/>
</g>
</svg>
