<svg width="25" height="24" viewBox="0 0 25 24" fill="none" xmlns="http://www.w3.org/2000/svg">
<mask id="mask0_222_40619" style="mask-type:alpha" maskUnits="userSpaceOnUse" x="0" y="0" width="25" height="24">
<rect x="0.5" width="24" height="24" fill="#D9D9D9"/>
</mask>
<g mask="url(#mask0_222_40619)">
<path d="M11.7501 5.21181V1.51953H13.25V5.21181H11.7501ZM17.8231 7.73103L16.7693 6.66758L19.3827 4.03876L20.4366 5.11758L17.8231 7.73103ZM19.2885 12.7502V11.2503H22.9808V12.7502H19.2885ZM19.3827 19.9368L16.7693 17.3233L17.8328 16.2599L20.4616 18.8579L19.3827 19.9368ZM7.18665 7.74063L4.55395 5.10796L5.63277 4.04838L8.24045 6.68683L7.18665 7.74063ZM6.78855 19.058H11.0962C11.577 19.058 11.9889 18.8865 12.3318 18.5435C12.6748 18.2006 12.8462 17.7887 12.8462 17.3079C12.8462 16.8272 12.6805 16.4169 12.3491 16.0772C12.0177 15.7374 11.6116 15.5675 11.1308 15.5675H10.0097L9.57702 14.531C9.33087 13.9554 8.94657 13.4986 8.42412 13.1608C7.90169 12.823 7.32445 12.6541 6.6924 12.6541C5.81418 12.6541 5.06898 12.9602 4.4568 13.5724C3.84463 14.1845 3.53855 14.9297 3.53855 15.8079C3.53855 16.7118 3.85425 17.4794 4.48565 18.1108C5.11707 18.7422 5.8847 19.058 6.78855 19.058ZM6.78855 20.5579C5.47573 20.5579 4.35587 20.0944 3.42895 19.1675C2.50203 18.2406 2.03857 17.1207 2.03857 15.8079C2.03857 14.5143 2.49082 13.4153 3.3953 12.5108C4.29978 11.6063 5.39882 11.1541 6.6924 11.1541C7.64752 11.1541 8.51674 11.4185 9.30007 11.9474C10.0834 12.4762 10.6526 13.183 11.0077 14.0676C11.9103 14.0676 12.6908 14.373 13.3491 14.9839C14.0074 15.5948 14.3398 16.397 14.3462 17.3906C14.3257 18.2765 14.002 19.0259 13.3751 19.6387C12.7482 20.2515 11.9885 20.5579 11.0962 20.5579H6.78855ZM14.327 17.1983C14.2629 16.9483 14.1988 16.705 14.1347 16.4685C14.0706 16.232 14.0065 15.9887 13.9424 15.7387C14.7116 15.4156 15.3302 14.9192 15.7981 14.2493C16.2661 13.5794 16.5001 12.8297 16.5001 12.0003C16.5001 10.9003 16.1084 9.95859 15.3251 9.17526C14.5417 8.39192 13.6001 8.00026 12.5001 8.00026C11.4808 8.00026 10.593 8.33647 9.8366 9.00891C9.0802 9.68136 8.64815 10.5272 8.54045 11.5464C8.29047 11.4823 8.03535 11.4233 7.7751 11.3695C7.51485 11.3157 7.25972 11.2567 7.00972 11.1926C7.20459 9.82848 7.82478 8.70541 8.8703 7.82336C9.9158 6.94131 11.1257 6.50028 12.5001 6.50028C14.0257 6.50028 15.3238 7.03554 16.3943 8.10606C17.4648 9.17656 18.0001 10.4746 18.0001 12.0003C18.0001 13.1746 17.6638 14.2326 16.9914 15.1743C16.319 16.1159 15.4308 16.7906 14.327 17.1983Z" fill="#262626"/>
</g>
</svg>
